<mxfile host="app.diagrams.net" agent="Mozilla/5.0 (Windows NT 10.0; Win64; x64) AppleWebKit/537.36 (KHTML, like Gecko) Chrome/135.0.0.0 Safari/537.36 Edg/135.0.0.0" version="26.2.13" pages="2">
  <diagram id="3228e29e-7158-1315-38df-8450db1d8a1d" name="Brainstorm (With Fav Stack)">
    <mxGraphModel dx="690" dy="669" grid="1" gridSize="10" guides="1" tooltips="1" connect="1" arrows="1" fold="1" page="1" pageScale="1" pageWidth="1169" pageHeight="827" background="none" math="0" shadow="0">
      <root>
        <mxCell id="0" />
        <mxCell id="1" parent="0" />
        <mxCell id="21653" value="A" style="ellipse;whiteSpace=wrap;html=1;aspect=fixed;rounded=1;shadow=0;glass=0;labelBackgroundColor=none;strokeColor=none;strokeWidth=2;fillColor=#1699D3;gradientColor=none;fontFamily=Helvetica;fontSize=25;fontColor=#2F5B7C;align=left;opacity=50;labelPosition=right;verticalLabelPosition=middle;verticalAlign=middle;" parent="1" vertex="1">
          <mxGeometry x="205" y="171.5" width="41" height="41" as="geometry" />
        </mxCell>
        <mxCell id="21654" value="B" style="ellipse;whiteSpace=wrap;html=1;aspect=fixed;rounded=1;shadow=0;glass=0;labelBackgroundColor=none;strokeColor=none;strokeWidth=2;fillColor=#0E8088;gradientColor=none;fontFamily=Helvetica;fontSize=25;fontColor=#2F5B7C;align=left;opacity=50;labelPosition=right;verticalLabelPosition=middle;verticalAlign=middle;" parent="1" vertex="1">
          <mxGeometry x="205" y="251.5" width="41" height="41" as="geometry" />
        </mxCell>
        <mxCell id="21655" value="E" style="ellipse;whiteSpace=wrap;html=1;aspect=fixed;rounded=1;shadow=0;glass=0;labelBackgroundColor=none;strokeColor=none;strokeWidth=2;fillColor=#56517E;gradientColor=none;fontFamily=Helvetica;fontSize=25;fontColor=#2F5B7C;align=left;opacity=50;labelPosition=right;verticalLabelPosition=middle;verticalAlign=middle;" parent="1" vertex="1">
          <mxGeometry x="204.5" y="491.5" width="41" height="41" as="geometry" />
        </mxCell>
        <mxCell id="21656" value="C" style="ellipse;whiteSpace=wrap;html=1;aspect=fixed;rounded=1;shadow=0;glass=0;labelBackgroundColor=none;strokeColor=none;strokeWidth=2;fillColor=#F08705;gradientColor=none;fontFamily=Helvetica;fontSize=25;fontColor=#2F5B7C;align=left;opacity=50;labelPosition=right;verticalLabelPosition=middle;verticalAlign=middle;" parent="1" vertex="1">
          <mxGeometry x="205" y="331.5" width="41" height="41" as="geometry" />
        </mxCell>
        <mxCell id="21657" value="D" style="ellipse;whiteSpace=wrap;html=1;aspect=fixed;rounded=1;shadow=0;glass=0;labelBackgroundColor=none;strokeColor=none;strokeWidth=2;fillColor=#AE4132;gradientColor=none;fontFamily=Helvetica;fontSize=25;fontColor=#2F5B7C;align=left;opacity=50;labelPosition=right;verticalLabelPosition=middle;verticalAlign=middle;" parent="1" vertex="1">
          <mxGeometry x="205" y="411.5" width="41" height="41" as="geometry" />
        </mxCell>
        <mxCell id="21658" value="" style="group" parent="1" vertex="1" connectable="0">
          <mxGeometry x="373.5" y="110.5" width="591" height="618.8355297838693" as="geometry" />
        </mxCell>
        <mxCell id="21659" value="" style="ellipse;whiteSpace=wrap;html=1;aspect=fixed;rounded=1;shadow=0;glass=0;labelBackgroundColor=#FFFFFF;strokeColor=none;strokeWidth=2;fillColor=#F08705;gradientColor=none;fontFamily=Helvetica;fontSize=25;fontColor=#2F5B7C;align=left;opacity=50;" parent="21658" vertex="1">
          <mxGeometry x="171.21785714285716" y="252.549815498155" width="366.2857142857143" height="366.2857142857143" as="geometry" />
        </mxCell>
        <mxCell id="21660" value="" style="ellipse;whiteSpace=wrap;html=1;aspect=fixed;rounded=1;shadow=0;glass=0;labelBackgroundColor=#FFFFFF;strokeColor=none;strokeWidth=2;fillColor=#12AAB5;gradientColor=none;fontFamily=Helvetica;fontSize=25;fontColor=#2F5B7C;align=left;opacity=50;" parent="21658" vertex="1">
          <mxGeometry x="224.71428571428572" y="86.97785977859779" width="366.2857142857143" height="366.2857142857143" as="geometry" />
        </mxCell>
        <mxCell id="21661" value="" style="ellipse;whiteSpace=wrap;html=1;aspect=fixed;rounded=1;shadow=0;glass=0;labelBackgroundColor=#FFFFFF;strokeColor=none;strokeWidth=2;fillColor=#1699D3;gradientColor=none;fontFamily=Helvetica;fontSize=25;fontColor=#2F5B7C;align=left;opacity=50;" parent="21658" vertex="1">
          <mxGeometry x="109.64642857142857" width="366.2857142857143" height="366.2857142857143" as="geometry" />
        </mxCell>
        <mxCell id="21662" value="" style="ellipse;whiteSpace=wrap;html=1;aspect=fixed;rounded=1;shadow=0;glass=0;labelBackgroundColor=#FFFFFF;strokeColor=none;strokeWidth=2;fillColor=#56517E;gradientColor=none;fontFamily=Helvetica;fontSize=25;fontColor=#2F5B7C;align=left;opacity=50;" parent="21658" vertex="1">
          <mxGeometry y="86.97785977859779" width="366.2857142857143" height="366.2857142857143" as="geometry" />
        </mxCell>
        <mxCell id="21663" value="" style="ellipse;whiteSpace=wrap;html=1;aspect=fixed;rounded=1;shadow=0;glass=0;labelBackgroundColor=#FFFFFF;strokeColor=none;strokeWidth=2;fillColor=#AE4132;gradientColor=none;fontFamily=Helvetica;fontSize=25;fontColor=#2F5B7C;align=left;opacity=50;" parent="21658" vertex="1">
          <mxGeometry x="48.07499999999999" y="252.549815498155" width="366.2857142857143" height="366.2857142857143" as="geometry" />
        </mxCell>
        <mxCell id="21664" value="Multi-Tenant SaaS for Freelancers" style="text;html=1;strokeColor=none;fillColor=none;align=center;verticalAlign=middle;whiteSpace=wrap;rounded=0;shadow=1;labelBackgroundColor=none;fontSize=18;fontColor=#23445D;" parent="21658" vertex="1">
          <mxGeometry x="428" y="501" width="40" height="20" as="geometry" />
        </mxCell>
        <mxCell id="21668" value="Cloud-Based Micro-Investment Platform" style="text;html=1;strokeColor=none;fillColor=none;align=center;verticalAlign=middle;whiteSpace=wrap;rounded=0;shadow=1;labelBackgroundColor=none;fontSize=18;fontColor=#23445D;" parent="21658" vertex="1">
          <mxGeometry x="273" y="41" width="40" height="20" as="geometry" />
        </mxCell>
        <mxCell id="21669" value="Personalized (Learning Management System) with AI Integration for Mapua Malayan Digital College Students" style="text;html=1;strokeColor=none;fillColor=none;align=center;verticalAlign=middle;whiteSpace=wrap;rounded=0;shadow=1;labelBackgroundColor=none;fontSize=18;fontColor=#23445D;" parent="21658" vertex="1">
          <mxGeometry x="511" y="241.5" width="40" height="20" as="geometry" />
        </mxCell>
        <mxCell id="21670" value="Decentralized Resume and Skill Verification Platform" style="text;html=1;strokeColor=none;fillColor=none;align=center;verticalAlign=middle;whiteSpace=wrap;rounded=0;shadow=1;labelBackgroundColor=none;fontSize=18;fontColor=#23445D;" parent="21658" vertex="1">
          <mxGeometry x="109.5" y="501" width="40" height="20" as="geometry" />
        </mxCell>
        <mxCell id="21671" value="Smart City Issue Tracker" style="text;html=1;strokeColor=none;fillColor=none;align=center;verticalAlign=middle;whiteSpace=wrap;rounded=0;shadow=1;labelBackgroundColor=none;fontSize=18;fontColor=#23445D;" parent="21658" vertex="1">
          <mxGeometry x="28" y="241.5" width="40" height="20" as="geometry" />
        </mxCell>
      </root>
    </mxGraphModel>
  </diagram>
  <diagram id="z4N2tp0qwp5IP72WkvMV" name="Page-2">
    <mxGraphModel dx="862" dy="836" grid="1" gridSize="10" guides="1" tooltips="1" connect="1" arrows="1" fold="1" page="1" pageScale="1" pageWidth="850" pageHeight="1100" math="0" shadow="0">
      <root>
        <mxCell id="0" />
        <mxCell id="1" parent="0" />
      </root>
    </mxGraphModel>
  </diagram>
</mxfile>
